<svg width="54" height="54" viewBox="0 0 54 54" fill="none" xmlns="http://www.w3.org/2000/svg">
<g id="arrow-up-right-circle-fill" clip-path="url(#clip0_24_384)">
<path id="Vector" fill-rule="evenodd" clip-rule="evenodd" d="M54 27C54 34.1608 51.1554 41.0284 46.0919 46.0919C41.0284 51.1554 34.1608 54 27 54C19.8392 54 12.9716 51.1554 7.90812 46.0919C2.84464 41.0284 0 34.1608 0 27C0 19.8392 2.84464 12.9716 7.90812 7.90812C12.9716 2.84464 19.8392 0 27 0C34.1608 0 41.0284 2.84464 46.0919 7.90812C51.1554 12.9716 54 19.8392 54 27ZM19.8416 36.5445C19.686 36.7057 19.4998 36.8342 19.2939 36.9227C19.088 37.0111 18.8666 37.0577 18.6425 37.0596C18.4184 37.0616 18.1962 37.0189 17.9888 36.934C17.7814 36.8492 17.593 36.7239 17.4346 36.5654C17.2761 36.407 17.1508 36.2186 17.066 36.0112C16.9811 35.8038 16.9384 35.5816 16.9404 35.3575C16.9423 35.1334 16.9889 34.912 17.0773 34.7061C17.1658 34.5002 17.2943 34.314 17.4555 34.1584L31.2795 20.3344H21.9375C21.4899 20.3344 21.0607 20.1566 20.7443 19.8401C20.4278 19.5236 20.25 19.0944 20.25 18.6469C20.25 18.1993 20.4278 17.7701 20.7443 17.4536C21.0607 17.1372 21.4899 16.9594 21.9375 16.9594H35.3531C35.8007 16.9594 36.2299 17.1372 36.5464 17.4536C36.8628 17.7701 37.0406 18.1993 37.0406 18.6469V32.0625C37.0406 32.5101 36.8628 32.9393 36.5464 33.2557C36.2299 33.5722 35.8007 33.75 35.3531 33.75C34.9056 33.75 34.4763 33.5722 34.1599 33.2557C33.8434 32.9393 33.6656 32.5101 33.6656 32.0625V22.7205L19.8416 36.5445Z" fill="white"/>
</g>
<defs>
<clipPath id="clip0_24_384">
<rect width="54" height="54" fill="white"/>
</clipPath>
</defs>
</svg>
