<svg width="55" height="55" viewBox="0 0 55 55" fill="none" xmlns="http://www.w3.org/2000/svg">
<g id="arrow-down-left-square">
<path id="Vector" fill-rule="evenodd" clip-rule="evenodd" d="M37.2209 17.7789C36.8986 17.4566 36.4615 17.2756 36.0058 17.2756C35.55 17.2756 35.1129 17.4566 34.7906 17.7789L20.7106 31.8589V22.3439C20.7106 21.888 20.5295 21.4509 20.2072 21.1285C19.8849 20.8062 19.4477 20.6251 18.9919 20.6251C18.536 20.6251 18.0989 20.8062 17.7765 21.1285C17.4542 21.4509 17.2731 21.888 17.2731 22.3439V36.0079C17.2731 36.4638 17.4542 36.9009 17.7765 37.2233C18.0989 37.5456 18.536 37.7267 18.9919 37.7267H32.6559C33.1118 37.7267 33.5489 37.5456 33.8713 37.2233C34.1936 36.9009 34.3747 36.4638 34.3747 36.0079C34.3747 35.5521 34.1936 35.1149 33.8713 34.7926C33.5489 34.4703 33.1118 34.2892 32.6559 34.2892H23.1409L37.2209 20.2092C37.5431 19.8869 37.7241 19.4498 37.7241 18.994C37.7241 18.5383 37.5431 18.1012 37.2209 17.7789Z" fill="white"/>
</g>
</svg>
