<svg width="20" height="20" viewBox="0 0 20 20" fill="none" xmlns="http://www.w3.org/2000/svg">
<g id="chat-dots-fill" clip-path="url(#clip0_24_349)">
<path id="Vector" fill-rule="evenodd" clip-rule="evenodd" d="M19.3332 9.8889C19.3332 14.3992 15.1542 18.0556 9.9999 18.0556C9.07549 18.0568 8.15492 17.9368 7.26173 17.6986C6.5804 18.0439 5.0159 18.7066 2.3839 19.1382C2.15057 19.1756 1.97323 18.9329 2.0654 18.7159C2.4784 17.7406 2.85173 16.4409 2.96373 15.2556C1.53456 13.8206 0.666565 11.9422 0.666565 9.8889C0.666565 5.37856 4.84556 1.72223 9.9999 1.72223C15.1542 1.72223 19.3332 5.37856 19.3332 9.8889ZM6.4999 9.8889C6.4999 10.1983 6.37698 10.4951 6.15819 10.7139C5.9394 10.9326 5.64265 11.0556 5.33323 11.0556C5.02381 11.0556 4.72707 10.9326 4.50827 10.7139C4.28948 10.4951 4.16657 10.1983 4.16657 9.8889C4.16657 9.57948 4.28948 9.28273 4.50827 9.06394C4.72707 8.84515 5.02381 8.72223 5.33323 8.72223C5.64265 8.72223 5.9394 8.84515 6.15819 9.06394C6.37698 9.28273 6.4999 9.57948 6.4999 9.8889ZM11.1666 9.8889C11.1666 10.1983 11.0436 10.4951 10.8249 10.7139C10.6061 10.9326 10.3093 11.0556 9.9999 11.0556C9.69048 11.0556 9.39373 10.9326 9.17494 10.7139C8.95615 10.4951 8.83323 10.1983 8.83323 9.8889C8.83323 9.57948 8.95615 9.28273 9.17494 9.06394C9.39373 8.84515 9.69048 8.72223 9.9999 8.72223C10.3093 8.72223 10.6061 8.84515 10.8249 9.06394C11.0436 9.28273 11.1666 9.57948 11.1666 9.8889ZM14.6666 11.0556C14.976 11.0556 15.2727 10.9326 15.4915 10.7139C15.7103 10.4951 15.8332 10.1983 15.8332 9.8889C15.8332 9.57948 15.7103 9.28273 15.4915 9.06394C15.2727 8.84515 14.976 8.72223 14.6666 8.72223C14.3571 8.72223 14.0604 8.84515 13.8416 9.06394C13.6228 9.28273 13.4999 9.57948 13.4999 9.8889C13.4999 10.1983 13.6228 10.4951 13.8416 10.7139C14.0604 10.9326 14.3571 11.0556 14.6666 11.0556Z" fill="white"/>
</g>
<defs>
<clipPath id="clip0_24_349">
<rect width="18.6667" height="18.6667" fill="white" transform="translate(0.666565 0.555557)"/>
</clipPath>
</defs>
</svg>
