<svg width="24" height="24" viewBox="0 0 24 24" fill="none" xmlns="http://www.w3.org/2000/svg">
<g id="envelope">
<path id="Vector" fill-rule="evenodd" clip-rule="evenodd" d="M0 5.99134C0 5.19682 0.316071 4.43484 0.87868 3.87304C1.44129 3.31123 2.20435 2.99561 3 2.99561H21C21.7956 2.99561 22.5587 3.31123 23.1213 3.87304C23.6839 4.43484 24 5.19682 24 5.99134V17.9743C24 18.7688 23.6839 19.5308 23.1213 20.0926C22.5587 20.6544 21.7956 20.97 21 20.97H3C2.20435 20.97 1.44129 20.6544 0.87868 20.0926C0.316071 19.5308 0 18.7688 0 17.9743V5.99134ZM3 4.49347C2.60218 4.49347 2.22064 4.65128 1.93934 4.93219C1.65804 5.21309 1.5 5.59408 1.5 5.99134V6.31638L12 12.6074L22.5 6.31638V5.99134C22.5 5.59408 22.342 5.21309 22.0607 4.93219C21.7794 4.65128 21.3978 4.49347 21 4.49347H3ZM22.5 8.06289L15.363 12.3393L22.5 16.6472V8.06439V8.06289ZM22.449 18.3652L13.9065 13.2111L12 14.3539L10.092 13.2111L1.551 18.3637C1.6368 18.6819 1.82527 18.963 2.08723 19.1633C2.34919 19.3637 2.67001 19.4723 3 19.4721H21C21.3298 19.4724 21.6505 19.364 21.9124 19.1639C22.1743 18.9638 22.3629 18.6831 22.449 18.3652ZM1.5 16.6472L8.637 12.3393L1.5 8.06289V16.6457V16.6472Z" fill="black"/>
</g>
</svg>
