<svg width="69" height="69" viewBox="0 0 69 69" fill="none" xmlns="http://www.w3.org/2000/svg">
<g id="Group">
<path id="Vector" d="M68.8624 34.4438C68.8624 51.8394 55.9716 66.2208 39.2252 68.5545C37.6594 68.7717 36.0574 68.8851 34.4312 68.8851C32.5542 68.8851 30.7109 68.7355 28.9159 68.4459C12.5218 65.8057 0 51.586 0 34.4438C0 15.4215 15.417 0 34.4336 0C53.4503 0 68.8673 15.4215 68.8673 34.4438H68.8624Z" fill="#1E1E1E"/>
<path id="Vector_2" d="M39.2252 27.6571V35.1603H48.5044L47.0351 45.2676H39.2252V68.5543C37.6594 68.7715 36.0574 68.8849 34.4313 68.8849C32.5542 68.8849 30.7109 68.7353 28.9159 68.4457V45.2676H20.3582V35.1603H28.9159V25.9798C28.9159 20.2843 33.5313 15.665 39.2277 15.665V15.6699C39.2445 15.6699 39.259 15.665 39.2759 15.665H48.5068V24.4063H42.4751C40.6825 24.4063 39.2277 25.8616 39.2277 27.6547L39.2252 27.6571Z" fill="white"/>
</g>
</svg>
