<svg width="72" height="72" viewBox="0 0 72 72" fill="none" xmlns="http://www.w3.org/2000/svg">
<g id="Group">
<path id="Vector" d="M35.7172 71.2985H35.5604C15.9526 71.2985 0 55.3413 0 35.7277V35.5708C0 15.9573 15.9526 0 35.5604 0H35.7172C55.325 0 71.2775 15.9573 71.2775 35.5708V35.7277C71.2775 55.3413 55.325 71.2985 35.7172 71.2985ZM35.5604 2.41338C17.282 2.41338 2.41267 17.287 2.41267 35.5708V35.7277C2.41267 54.0115 17.282 68.8851 35.5604 68.8851H35.7172C53.9956 68.8851 68.8649 54.0115 68.8649 35.7277V35.5708C68.8649 17.287 53.9956 2.41338 35.7172 2.41338H35.5604Z" fill="#1E1E1E"/>
<g id="Group_2">
<path id="Vector_2" d="M42.352 45.7238C33.5385 45.7238 26.368 38.5488 26.3656 29.7327C26.368 27.4979 28.1872 25.6807 30.4165 25.6807C30.6457 25.6807 30.8725 25.7 31.0896 25.7386C31.5673 25.8182 32.0209 25.9799 32.4383 26.2237C32.4986 26.2599 32.5396 26.3178 32.5493 26.3854L33.4806 32.2571C33.4926 32.3271 33.4709 32.3947 33.4251 32.4454C32.9112 33.0149 32.2549 33.4252 31.5239 33.6304L31.1717 33.7293L31.3043 34.0696C32.5058 37.1297 34.9523 39.5745 38.014 40.7812L38.3542 40.9164L38.4531 40.564C38.6582 39.8328 39.0683 39.1763 39.6377 38.6623C39.6787 38.6236 39.7342 38.6043 39.7897 38.6043C39.8018 38.6043 39.8138 38.6043 39.8283 38.6067L45.6983 39.5383C45.7683 39.5504 45.8262 39.589 45.8624 39.6493C46.1037 40.0669 46.2653 40.523 46.3474 41.0008C46.386 41.2132 46.4028 41.4376 46.4028 41.6717C46.4028 43.9041 44.5861 45.7214 42.352 45.7238Z" fill="#1E1E1E"/>
<path id="Vector_3" d="M57.9813 33.7148C57.506 28.3426 55.0451 23.359 51.0521 19.6834C47.035 15.9861 41.8236 13.9492 36.3734 13.9492C24.4114 13.9492 14.6787 23.6848 14.6787 35.6503C14.6787 39.6662 15.7861 43.5783 17.8827 46.986L13.2069 57.3394L28.1775 55.7441C30.7808 56.8109 33.5361 57.3514 36.371 57.3514C37.1165 57.3514 37.8813 57.3128 38.6485 57.2332C39.3241 57.1608 40.0069 57.0546 40.6776 56.9195C50.695 54.8947 58.0078 46.0013 58.0657 35.7662V35.6503C58.0657 34.9987 58.0368 34.3471 57.9789 33.7172L57.9813 33.7148ZM28.7542 51.1997L20.4715 52.0831L22.9445 46.6023L22.4499 45.9386C22.4137 45.8903 22.3775 45.842 22.3365 45.7865C20.1892 42.8205 19.0552 39.3163 19.0552 35.6527C19.0552 26.1006 26.824 18.3295 36.3734 18.3295C45.3196 18.3295 52.9026 25.3114 53.6336 34.224C53.6722 34.7019 53.694 35.1821 53.694 35.6552C53.694 35.7903 53.6915 35.923 53.6891 36.0654C53.5058 44.0561 47.9253 50.8426 40.1178 52.5706C39.5219 52.7033 38.9115 52.8047 38.3035 52.8698C37.6714 52.9422 37.0224 52.9784 36.3782 52.9784C34.0838 52.9784 31.8545 52.5344 29.7482 51.6559C29.5142 51.5618 29.2849 51.4604 29.0702 51.3566L28.7566 51.2046L28.7542 51.1997Z" fill="#1E1E1E"/>
</g>
</g>
</svg>
