<svg width="69" height="69" viewBox="0 0 69 69" fill="none" xmlns="http://www.w3.org/2000/svg">
<g id="Group">
<path id="Vector" d="M34.5108 0H34.354C15.3808 0 0 15.3854 0 34.3641V34.521C0 53.4998 15.3808 68.8851 34.354 68.8851H34.5108C53.484 68.8851 68.8649 53.4998 68.8649 34.521V34.3641C68.8649 15.3854 53.484 0 34.5108 0Z" fill="#1E1E1E"/>
<g id="Group_2">
<path id="Vector_2" d="M45.0879 14.0146H23.7792C17.8923 14.0146 13.1031 18.8052 13.1031 24.6939V44.194C13.1031 50.0826 17.8923 54.8732 23.7792 54.8732H45.0879C50.9748 54.8732 55.764 50.0826 55.764 44.194V24.6939C55.764 18.8052 50.9748 14.0146 45.0879 14.0146ZM16.8693 24.6939C16.8693 20.8831 19.9696 17.7819 23.7792 17.7819H45.0879C48.8975 17.7819 51.9978 20.8831 51.9978 24.6939V44.194C51.9978 48.0047 48.8975 51.1059 45.0879 51.1059H23.7792C19.9696 51.1059 16.8693 48.0047 16.8693 44.194V24.6939Z" fill="white"/>
<path id="Vector_3" d="M34.4336 44.3753C39.908 44.3753 44.3642 39.9201 44.3642 34.4418C44.3642 28.9634 39.9104 24.5083 34.4336 24.5083C28.9569 24.5083 24.5031 28.9634 24.5031 34.4418C24.5031 39.9201 28.9569 44.3753 34.4336 44.3753ZM34.4336 28.278C37.8331 28.278 40.598 31.0437 40.598 34.4442C40.598 37.8446 37.8331 40.6104 34.4336 40.6104C31.0342 40.6104 28.2692 37.8446 28.2692 34.4442C28.2692 31.0437 31.0342 28.278 34.4336 28.278Z" fill="white"/>
<path id="Vector_4" d="M45.2834 26.1131C46.7576 26.1131 47.9591 24.9137 47.9591 23.4367C47.9591 21.9597 46.76 20.7603 45.2834 20.7603C43.8069 20.7603 42.6078 21.9597 42.6078 23.4367C42.6078 24.9137 43.8069 26.1131 45.2834 26.1131Z" fill="white"/>
</g>
</g>
</svg>
