<svg width="69" height="69" viewBox="0 0 69 69" fill="none" xmlns="http://www.w3.org/2000/svg">
<g id="Group">
<path id="Vector" d="M34.5109 0H34.354C15.3808 0 0 15.3854 0 34.3641V34.521C0 53.4998 15.3808 68.8851 34.354 68.8851H34.5109C53.4841 68.8851 68.8648 53.4998 68.8648 34.521V34.3641C68.8648 15.3854 53.4841 0 34.5109 0Z" fill="#1E1E1E"/>
<path id="Vector_2" d="M13.0429 33.2683C13.1394 33.2201 13.236 33.1742 13.3301 33.1308C14.9658 32.373 16.6234 31.6635 18.2784 30.9539C18.3677 30.9539 18.5173 30.8501 18.6017 30.8164C18.7296 30.7609 18.8575 30.7078 18.9853 30.6523C19.2314 30.5461 19.4775 30.4423 19.7212 30.3361C20.2134 30.1261 20.7031 29.9162 21.1953 29.7062L24.1412 28.444C26.1051 27.6041 28.0715 26.7619 30.0354 25.922C31.9993 25.0822 33.9656 24.2399 35.9295 23.4C37.8934 22.5602 39.8597 21.7179 41.8237 20.8781C43.7876 20.0382 45.7539 19.1959 47.7179 18.3561C48.1546 18.1678 48.6274 17.8879 49.0955 17.8058C49.4888 17.7358 49.8723 17.6007 50.268 17.5259C51.0183 17.3835 51.8459 17.3256 52.5649 17.6369C52.8134 17.7455 53.0426 17.8975 53.2332 18.0882C54.1452 18.9908 54.0173 20.4726 53.8243 21.742C52.4804 30.5895 51.1366 39.4394 49.7903 48.2868C49.6069 49.5008 49.356 50.8329 48.3982 51.6004C47.5875 52.2496 46.4343 52.322 45.433 52.0469C44.4317 51.7693 43.5487 51.1877 42.6826 50.6157C39.0901 48.2361 35.4953 45.8565 31.9028 43.4769C31.0487 42.9122 30.0981 42.1737 30.1078 41.148C30.1126 40.5302 30.4817 39.98 30.8581 39.4901C33.9801 35.4163 38.4845 32.6167 41.8357 28.7312C42.3086 28.1834 42.6802 27.1939 42.0312 26.8777C41.6452 26.6895 41.2012 26.9453 40.8489 27.189C36.4193 30.2661 31.9921 33.3456 27.5624 36.4226C26.1172 37.4266 24.6021 38.4595 22.8601 38.7057C21.3015 38.9277 19.7333 38.4933 18.2254 38.0493C16.9611 37.6776 15.6993 37.2963 14.4423 36.9029C13.774 36.6954 13.0839 36.4709 12.5676 36.0003C12.0513 35.5297 11.7546 34.7381 12.0658 34.1106C12.2612 33.7172 12.64 33.4687 13.0381 33.2659L13.0429 33.2683Z" fill="#FEFFFC"/>
</g>
</svg>
