<svg width="20" height="20" viewBox="0 0 20 20" fill="none" xmlns="http://www.w3.org/2000/svg">
<g id="hourglass-split">
<path id="Vector" fill-rule="evenodd" clip-rule="evenodd" d="M3.47213 18.0555C3.31742 18.0555 3.16904 17.9941 3.05965 17.8847C2.95025 17.7753 2.88879 17.6269 2.88879 17.4722C2.88879 17.3175 2.95025 17.1691 3.05965 17.0597C3.16904 16.9503 3.31742 16.8889 3.47213 16.8889H4.63879V15.7222C4.63855 14.7317 4.91854 13.7613 5.44642 12.9231C5.97429 12.085 6.72852 11.4132 7.62196 10.9855C7.96029 10.8234 8.13879 10.5457 8.13879 10.2972V9.48055C8.13879 9.23205 7.95913 8.95438 7.62196 8.79221C6.72852 8.36452 5.97429 7.6928 5.44642 6.85464C4.91854 6.01648 4.63855 5.04608 4.63879 4.05555V2.88888H3.47213C3.31742 2.88888 3.16904 2.82742 3.05965 2.71803C2.95025 2.60863 2.88879 2.46026 2.88879 2.30555C2.88879 2.15084 2.95025 2.00246 3.05965 1.89307C3.16904 1.78367 3.31742 1.72221 3.47213 1.72221H16.3055C16.4602 1.72221 16.6085 1.78367 16.7179 1.89307C16.8273 2.00246 16.8888 2.15084 16.8888 2.30555C16.8888 2.46026 16.8273 2.60863 16.7179 2.71803C16.6085 2.82742 16.4602 2.88888 16.3055 2.88888H15.1388V4.05555C15.139 5.04608 14.859 6.01648 14.3312 6.85464C13.8033 7.6928 13.0491 8.36452 12.1556 8.79221C11.8173 8.95438 11.6388 9.23205 11.6388 9.48055V10.2972C11.6388 10.5457 11.8185 10.8234 12.1556 10.9855C13.0491 11.4132 13.8033 12.085 14.3312 12.9231C14.859 13.7613 15.139 14.7317 15.1388 15.7222V16.8889H16.3055C16.4602 16.8889 16.6085 16.9503 16.7179 17.0597C16.8273 17.1691 16.8888 17.3175 16.8888 17.4722C16.8888 17.6269 16.8273 17.7753 16.7179 17.8847C16.6085 17.9941 16.4602 18.0555 16.3055 18.0555H3.47213ZM5.80546 2.88888V4.05555C5.80546 4.68205 5.94546 5.27471 6.19863 5.80555H13.579C13.831 5.27471 13.9721 4.68205 13.9721 4.05555V2.88888H5.80546ZM9.30546 10.2972C9.30546 11.115 8.74779 11.7392 8.12596 12.0379C7.43097 12.3705 6.84427 12.893 6.43365 13.5449C6.02303 14.1969 5.80525 14.9517 5.80546 15.7222C5.80546 15.7222 6.81579 14.2067 9.30546 13.9955V10.2972ZM10.4721 10.2972C10.4721 11.115 11.0298 11.7392 11.6516 12.0379C12.3466 12.3705 12.9333 12.893 13.3439 13.5449C13.7546 14.1969 13.9723 14.9517 13.9721 15.7222C13.9721 15.7222 12.9618 14.2067 10.4721 13.9955V10.2972Z" fill="#7B7B7B"/>
</g>
</svg>
