<svg width="19" height="20" viewBox="0 0 19 20" fill="none" xmlns="http://www.w3.org/2000/svg">
<g id="house-door-fill">
<rect width="18.6667" height="18.6667" transform="translate(-9.91821e-05 0.555557)" fill="white"/>
<path id="Vector" d="M7.58324 13.383V17.4721C7.58324 17.6268 7.52178 17.7752 7.41238 17.8846C7.30298 17.994 7.15461 18.0555 6.9999 18.0555H2.33324C2.17853 18.0555 2.03015 17.994 1.92076 17.8846C1.81136 17.7752 1.7499 17.6268 1.7499 17.4721V9.30546C1.74976 9.22881 1.76474 9.15287 1.79396 9.08201C1.82319 9.01114 1.8661 8.94673 1.92024 8.89246L8.92024 1.89246C8.97442 1.83814 9.03879 1.79504 9.10966 1.76563C9.18053 1.73622 9.25651 1.72108 9.33324 1.72108C9.40996 1.72108 9.48594 1.73622 9.55681 1.76563C9.62768 1.79504 9.69205 1.83814 9.74624 1.89246L16.7462 8.89246C16.8004 8.94673 16.8433 9.01114 16.8725 9.08201C16.9017 9.15287 16.9167 9.22881 16.9166 9.30546V17.4721C16.9166 17.6268 16.8551 17.7752 16.7457 17.8846C16.6363 17.994 16.4879 18.0555 16.3332 18.0555H11.6666C11.5119 18.0555 11.3635 17.994 11.2541 17.8846C11.1447 17.7752 11.0832 17.6268 11.0832 17.4721V13.3888C11.0832 13.0971 10.7916 12.8055 10.4999 12.8055H8.16657C7.8749 12.8055 7.58324 13.0971 7.58324 13.383Z" fill="#A9A9A9"/>
<path id="Vector_2" fill-rule="evenodd" clip-rule="evenodd" d="M15.1666 3.47222V7.55555L12.8332 5.22222V3.47222C12.8332 3.31751 12.8947 3.16914 13.0041 3.05974C13.1135 2.95034 13.2619 2.88889 13.4166 2.88889H14.5832C14.7379 2.88889 14.8863 2.95034 14.9957 3.05974C15.1051 3.16914 15.1666 3.31751 15.1666 3.47222Z" fill="#A9A9A9"/>
</g>
</svg>
