<svg width="19" height="19" viewBox="0 0 19 19" fill="none" xmlns="http://www.w3.org/2000/svg">
<g id="pencil-fill" clip-path="url(#clip0_61_109)">
<path id="Vector" fill-rule="evenodd" clip-rule="evenodd" d="M15.2685 0.166304C15.1572 0.0549932 15.0062 -0.00753784 14.8488 -0.00753784C14.6913 -0.00753784 14.5403 0.0549932 14.429 0.166304L12.4732 2.12212L16.8752 6.52418L18.831 4.56955C18.8863 4.5144 18.9302 4.44888 18.9601 4.37674C18.9901 4.30461 19.0055 4.22728 19.0055 4.14918C19.0055 4.07108 18.9901 3.99375 18.9601 3.92161C18.9302 3.84948 18.8863 3.78396 18.831 3.7288L15.2685 0.166304ZM16.0357 7.36374L11.6336 2.96168L3.91485 10.6804H4.16066C4.31813 10.6804 4.46915 10.743 4.5805 10.8543C4.69185 10.9657 4.75441 11.1167 4.75441 11.2742V11.8679H5.34816C5.50563 11.8679 5.65665 11.9305 5.768 12.0418C5.87935 12.1532 5.94191 12.3042 5.94191 12.4617V13.0554H6.53566C6.69313 13.0554 6.84415 13.118 6.9555 13.2293C7.06685 13.3407 7.12941 13.4917 7.12941 13.6492V14.2429H7.72316C7.88063 14.2429 8.03165 14.3055 8.143 14.4168C8.25435 14.5282 8.31691 14.6792 8.31691 14.8367V15.0825L16.0357 7.36374ZM7.16741 16.232C7.14242 16.1655 7.12955 16.0952 7.12941 16.0242V15.4304H6.53566C6.37819 15.4304 6.22716 15.3679 6.11581 15.2565C6.00446 15.1452 5.94191 14.9942 5.94191 14.8367V14.2429H5.34816C5.19069 14.2429 5.03966 14.1804 4.92831 14.069C4.81696 13.9577 4.75441 13.8067 4.75441 13.6492V13.0554H4.16066C4.00319 13.0554 3.85216 12.9929 3.74081 12.8815C3.62946 12.7702 3.56691 12.6192 3.56691 12.4617V11.8679H2.97316C2.90217 11.8678 2.83178 11.8549 2.76535 11.8299L2.55278 12.0413C2.4962 12.0983 2.45176 12.1662 2.42216 12.2408L0.0471584 18.1783C0.00396822 18.2862 -0.00660469 18.4044 0.0167504 18.5183C0.0401055 18.6321 0.0963615 18.7366 0.178544 18.8188C0.260727 18.901 0.365222 18.9572 0.479075 18.9806C0.592928 19.0039 0.711132 18.9934 0.819033 18.9502L6.75653 16.5752C6.83118 16.5456 6.89905 16.5011 6.95603 16.4446L7.16741 16.2332V16.232Z" fill="#555555"/>
</g>
<defs>
<clipPath id="clip0_61_109">
<rect width="19" height="19" fill="white"/>
</clipPath>
</defs>
</svg>
