<svg width="19" height="19" viewBox="0 0 19 19" fill="none" xmlns="http://www.w3.org/2000/svg">
<g id="pie-chart-fill" clip-path="url(#clip0_61_111)">
<path id="Vector" d="M18.9833 10.0936H9.74689L3.21563 16.6249C4.54891 17.8011 6.18551 18.5796 7.93932 18.8718C9.69312 19.164 11.4937 18.9582 13.1363 18.2777C14.779 17.5973 16.1977 16.4695 17.2311 15.0227C18.2645 13.5759 18.8712 11.8681 18.9821 10.0936H18.9833ZM2.37607 15.7841C1.19981 14.4508 0.42131 12.8142 0.129112 11.0604C-0.163086 9.30664 0.0427472 7.50603 0.723201 5.86342C1.40366 4.2208 2.53142 2.8021 3.97822 1.76868C5.42503 0.735263 7.13281 0.128597 8.90732 0.0176849V9.25406L2.37607 15.7853V15.7841ZM10.0948 0.0176849V8.90612H18.9833C18.8385 6.59618 17.8556 4.4185 16.219 2.78192C14.5824 1.14534 12.4048 0.16242 10.0948 0.0176849Z" fill="white"/>
</g>
<defs>
<clipPath id="clip0_61_111">
<rect width="19" height="19" fill="white"/>
</clipPath>
</defs>
</svg>
