<svg width="24" height="24" viewBox="0 0 24 24" fill="none" xmlns="http://www.w3.org/2000/svg">
<g id="telephone" clip-path="url(#clip0_24_425)">
<path id="Vector" fill-rule="evenodd" clip-rule="evenodd" d="M5.47 1.98561C5.38145 1.8717 5.26968 1.77793 5.14211 1.71054C5.01453 1.64315 4.87408 1.60368 4.73008 1.59474C4.58608 1.5858 4.44182 1.60761 4.3069 1.6587C4.17197 1.7098 4.04946 1.78902 3.9475 1.89111L2.3965 3.44361C1.672 4.16961 1.405 5.19711 1.7215 6.09861C3.03511 9.82999 5.17195 13.2177 7.9735 16.0106C10.7664 18.8121 14.1541 20.9489 17.8855 22.2626C18.787 22.5791 19.8145 22.3121 20.5405 21.5876L22.0915 20.0366C22.1936 19.9347 22.2728 19.8121 22.3239 19.6772C22.375 19.5423 22.3968 19.398 22.3879 19.254C22.3789 19.11 22.3395 18.9696 22.2721 18.842C22.2047 18.7144 22.1109 18.6027 21.997 18.5141L18.5365 15.8231C18.4148 15.7287 18.2733 15.6632 18.1226 15.6315C17.9718 15.5998 17.8159 15.6027 17.6665 15.6401L14.3815 16.4606C13.943 16.5702 13.4836 16.5644 13.0481 16.4437C12.6125 16.3231 12.2156 16.0917 11.896 15.7721L8.212 12.0866C7.89216 11.7672 7.66049 11.3703 7.53957 10.9348C7.41865 10.4992 7.4126 10.0397 7.522 9.60111L8.344 6.31611C8.38136 6.1667 8.38431 6.01076 8.3526 5.86005C8.3209 5.70934 8.25539 5.5678 8.161 5.44611L5.47 1.98561ZM2.815 0.760107C3.0775 0.497531 3.39284 0.293802 3.74011 0.162448C4.08738 0.0310947 4.45862 -0.0248783 4.82917 -0.00175388C5.19973 0.0213705 5.56113 0.123063 5.88937 0.296572C6.21762 0.47008 6.50519 0.711434 6.733 1.00461L9.424 4.46361C9.9175 5.09811 10.0915 5.92461 9.8965 6.70461L9.076 9.98961C9.03358 10.1598 9.03587 10.338 9.08266 10.507C9.12944 10.676 9.21912 10.83 9.343 10.9541L13.0285 14.6396C13.1528 14.7637 13.307 14.8536 13.4763 14.9004C13.6456 14.9472 13.8241 14.9493 13.9945 14.9066L17.278 14.0861C17.6629 13.9899 18.0647 13.9824 18.4529 14.0642C18.8412 14.1461 19.2057 14.3151 19.519 14.5586L22.978 17.2496C24.2215 18.2171 24.3355 20.0546 23.2225 21.1661L21.6715 22.7171C20.5615 23.8271 18.9025 24.3146 17.356 23.7701C13.3978 22.3774 9.80391 20.1114 6.841 17.1401C3.86994 14.1776 1.60392 10.5843 0.211003 6.62661C-0.331997 5.08161 0.155503 3.42111 1.2655 2.31111L2.8165 0.760107H2.815Z" fill="black"/>
</g>
<defs>
<clipPath id="clip0_24_425">
<rect width="24" height="24" fill="white"/>
</clipPath>
</defs>
</svg>
